<svg xmlns="http://www.w3.org/2000/svg" viewBox="0 0 2048.000000 1129.000000" id="box">
    <g transform="translate(0.000000,1129.000000) scale(0.100000,-0.100000)" stroke="none">
      <path d="M635 11284 c-170 -43 -290 -109 -405 -224 -99 -99 -154 -188 -201
-325 l-24 -70 0 -3525 c0 -3364 1 -3531 18 -3655 51 -362 145 -721 257 -985
17 -41 36 -88 42 -105 18 -46 145 -301 190 -380 79 -137 188 -302 281 -425
670 -885 1635 -1435 2747 -1566 181 -22 658 -25 830 -5 374 42 747 131 1045
251 44 18 100 40 125 50 251 101 629 323 875 515 403 313 783 750 1016 1165
60 108 60 109 66 94 8 -23 143 -244 203 -334 233 -347 528 -663 858 -918 594
-460 1255 -729 2012 -819 222 -26 679 -23 905 6 504 64 940 200 1373 427 818
428 1467 1132 1828 1984 228 539 337 1147 305 1705 -19 320 -50 542 -116 806
-86 347 -243 732 -420 1035 -490 835 -1281 1479 -2188 1778 -296 97 -595 159
-902 186 -177 16 -585 13 -750 -4 -787 -84 -1489 -374 -2115 -874 -368 -293
-767 -771 -975 -1164 -11 -21 -22 -38 -25 -38 -3 0 -29 42 -59 93 -257 442
-577 814 -966 1126 -601 482 -1310 773 -2085 857 -163 17 -580 19 -759 4 -383
-34 -827 -143 -1176 -290 -237 -99 -530 -261 -737 -406 l-108 -75 0 1678 c0
1061 -4 1704 -10 1748 -43 300 -249 547 -543 652 -64 23 -89 26 -232 29 -88 1
-169 0 -180 -2z m3675 -4949 c188 -28 362 -73 515 -132 780 -302 1343 -980
1489 -1793 45 -248 47 -596 6 -830 -131 -748 -601 -1379 -1282 -1722 -206
-103 -468 -186 -703 -223 -143 -22 -434 -30 -585 -16 -363 35 -741 164 -1044
356 -587 371 -980 978 -1082 1670 -25 170 -26 527 -1 685 40 254 114 487 224
710 367 738 1093 1234 1918 1310 126 12 420 4 545 -15z m7059 -5 c588 -96
1099 -387 1465 -835 249 -304 398 -607 486 -990 207 -895 -141 -1856 -871
-2407 -453 -343 -967 -505 -1534 -485 -397 14 -741 111 -1085 305 -655 369
-1097 1032 -1185 1777 -17 148 -20 430 -5 555 65 548 303 1039 689 1420 395
390 911 629 1466 680 141 13 433 3 574 -20z" />
      <path d="M14798 7960 c-131 -21 -269 -81 -376 -164 -318 -246 -403 -697 -196
-1037 20 -33 315 -433 657 -889 342 -457 798 -1065 1012 -1351 215 -287 391
-527 393 -534 2 -7 -44 -75 -101 -152 -57 -76 -331 -442 -608 -813 -278 -371
-693 -926 -923 -1233 -249 -333 -433 -588 -456 -633 -122 -240 -114 -519 23
-764 83 -148 263 -294 439 -357 62 -21 96 -26 219 -30 126 -5 156 -3 229 16
140 35 240 89 349 187 48 43 369 467 1555 2054 142 190 265 353 273 362 14 15
31 -4 196 -225 510 -683 1580 -2110 1595 -2129 39 -47 167 -148 230 -181 137
-71 188 -82 377 -82 160 0 175 2 251 28 236 81 435 282 511 516 26 80 28 97
28 251 0 161 -1 167 -32 254 -18 49 -50 117 -72 152 -37 58 -302 415 -1588
2132 l-481 643 383 512 c211 282 443 591 515 687 692 921 1154 1544 1184 1597
19 35 48 99 63 141 27 73 28 86 28 247 0 159 -2 175 -28 250 -99 287 -327 485
-622 540 -164 31 -347 5 -499 -71 -147 -74 -206 -133 -420 -419 -745 -993
-1589 -2123 -1596 -2135 -5 -8 -10 -13 -12 -10 -3 3 -71 95 -153 205 -192 258
-1026 1373 -1349 1804 -138 184 -274 360 -303 391 -92 100 -245 188 -383 223
-82 20 -238 28 -312 17z" />
    </g>

</svg>
