<svg xmlns="http://www.w3.org/2000/svg" id="check" viewBox="0 0 25 25">
    <g id="Page-1" stroke="none" stroke-width="1" fill="none" fill-rule="evenodd">
      <g id="Artboard" transform="translate(-880.000000, -310.000000)">
        <g id="Tick" transform="translate(880.000000, 310.000000)">
          <circle id="Oval" fill="#63AD0E" cx="12.5" cy="12.5" r="12.5"></circle>
          <path d="M19.8521394,8.7979801 C19.8521394,8.56081464 19.7572732,8.32364918 19.5865141,8.15289005 L18.296334,6.86270994 C18.1255749,6.69195081 17.8884094,6.59708462 17.651244,6.59708462 C17.4140785,6.59708462 17.176913,6.69195081 17.0061539,6.86270994 L10.7829322,13.0954183 L7.99386637,10.2968658 C7.82310724,10.1261067 7.58594177,10.0312405 7.34877631,10.0312405 C7.11161085,10.0312405 6.87444539,10.1261067 6.70368626,10.2968658 L5.41350615,11.5870459 C5.24274702,11.7578051 5.14788083,11.9949705 5.14788083,12.232136 C5.14788083,12.4693014 5.24274702,12.7064669 5.41350615,12.877226 L10.1378421,17.601562 C10.3086013,17.7723212 10.5457667,17.8671873 10.7829322,17.8671873 C11.0200977,17.8671873 11.2572631,17.7723212 11.4280222,17.601562 L19.5865141,9.44307016 C19.7572732,9.27231102 19.8521394,9.03514556 19.8521394,8.7979801 Z"
            id="" fill="#FFFFFF"></path>
        </g>
      </g>
    </g>
  </svg>
