<svg xmlns="http://www.w3.org/2000/svg" viewBox="0 0 97.544 97.544" id="dailymotion">

    <g>
      <g>
        <path d="M83.473,89.132l-7.283-35.187l-2.979-1.131L69.845,54.1l-0.875-5.371l-6.184-2.411l-2.078-20.185l3.209-3.125
			l-12.983-8.421L50.049,0l-1.194,13.241l-0.649-0.422v0.013l-10.17,13.153l2.396,1.75l-1.301,10.41l-1.982-0.306l-1.448,2.157
			l-1.69,10.263l-7.028-1.446v-0.002l-0.003,0.002l-0.01-0.002l-0.004,0.014l-2.396,2.232l-1.137,5.135l-1.354,1.115l-7.855,28.455
			l-0.153,0.325l4.155,4.078l0.089,0.09l10.648-1.032l-0.397,2.152l5.21,2.254l1.209-0.334l-0.054,0.012l0.294-0.08l-0.081,0.963
			l8.415,3.354l0.008-0.004l17.064-2.72v-0.885l2.324,0.323l-0.074-0.147l0.002,0.06l-0.01-0.073l0.008,0.014l9.133-1.545
			l-0.244-1.912l0.166,0.074l2.719,0.724l3.762-0.724l-0.113-0.644L83.473,89.132z M17.947,89.186l-3.266-3.205l0.019-0.041
			l0.013-0.041l7.812-28.301l1.23-1.014l0.136-0.111l0.037-0.17l1.104-4.982l1.108-1.041L17.947,89.186z M46.852,49.109
			l-0.193-0.057l-0.607-0.177l-0.039,0.632l-2.916,47.307l-7.409-2.953l2.193-20.576l3.276-10.607l0.02-0.057l0.002-0.059
			l0.327-4.972l0.022-0.323l-0.286-0.154l-2.818-1.525l-0.489-0.266l-0.161-0.135l-0.006,0.045l-0.089-0.049v0.819l-0.015,0.117
			l-4.32,36.769l-4.206-1.818l6.305-34.25l1.62-0.985l0.146-0.069l0.248-0.121l0.033-0.272l3.447-27.576l0.037-0.295l-0.24-0.176
			l-1.977-1.444l9.095-11.763l0.327,2.745L46.852,49.109z M58.656,55.042l-1.708-0.624l-0.167-5.12l2.41,0.634l0.235,4.035
			l-0.807,0.377L58.656,55.042z M56.948,47.858l-0.167-4.494l2.41,1.034l0.32,4.413L56.948,47.858z M58.471,32.296l-2.166-1.115
			v-3.297l2.083,1.14L58.471,32.296z M51.979,20.762l2.168,1.116l0.082,3.605l-2.25-1.205V20.762z M52.063,25.646l2.312,1.213
			l0.082,3.354l-2.479-1.188L52.063,25.646z M54.458,31.571l0.158,3.532l-2.553-1.204l-0.084-3.524L54.458,31.571z M54.781,40.875
			l-2.718-1.115v-4.656l2.553,1.205L54.781,40.875z M55.023,53.945l-0.565-0.162l-0.002,0.004l0.082-1.844l-2.475-0.744v-3.676
			l2.96,1.213V53.945z M52.063,45.92l0.061-4.647l2.739,1.123l0.16,4.648L52.063,45.92z M56.064,22.928l1.998,1.033l0.167,3.614
			l-2.083-1.042L56.064,22.928z M56.305,32.54l2.237,1.131l0.248,3.435l-2.322-1.042L56.305,32.54z M56.552,37.358l2.312,1.114
			l0.327,4.323L56.7,41.762L56.552,37.358z M56.948,61.874l-0.167-5.21l1.999,0.845l0.258,5.067L56.948,61.874z M61.107,93.49
			l-1.963-38.83l0.739-0.348l2.41,39.344L61.107,93.49z M74.673,90.934l-2.45-0.654l-0.515-3.236l-0.086-0.527l-0.521,0.111
			l-0.644,0.137l-3.709-31.842l-0.041-0.352l-0.344-0.084l-2.296-0.549l-0.694-6.846l5.14,2.002l1.399,9.016l0.047,0.306
			l0.293,0.099l2.123,0.709l5.453,31.102L74.673,90.934z" />
        <path d="M39.027,48.236l-0.179,0.125l-0.03,0.215l-0.168,1.123l-0.172,1.164l0.964-0.674l6.647-4.646l0.217-0.152v-0.264v-1.034
			v-0.975l-0.798,0.561L39.027,48.236z M45.8,45.128l-6.649,4.647l0.166-1.125l6.483-4.558V45.128z" />
        <path d="M46.554,34.025l0.14-0.134l0.016-0.193l0.085-1.106l0.102-1.304l-0.953,0.896l-5.616,5.283l-0.132,0.124l-0.022,0.18
			l-0.168,1.286l-0.184,1.425l1.037-0.994L46.554,34.025z M40.672,37.835l5.617-5.282l-0.085,1.107l-5.698,5.461L40.672,37.835z"
        />
        <path d="M47.037,24.574l0.154-0.149V24.21v-1.196V21.81l-0.86,0.843l-4.729,4.631l-0.126,0.125l-0.022,0.177L41.3,28.88
			l-0.17,1.416l1.024-0.992L47.037,24.574z M41.956,27.645l4.729-4.631v1.196l-4.883,4.729L41.956,27.645z" />
        <path d="M46.799,29.299l0.14-0.136l0.011-0.195l0.072-1.294l0.077-1.36l-0.946,0.979l-5.197,5.38l-0.101,0.105l-0.03,0.143
			l-0.253,1.205l-0.343,1.64l1.193-1.175L46.799,29.299z M41.32,33.024l5.197-5.38l-0.073,1.294l-5.376,5.29L41.32,33.024z"
        />
        <path d="M39.716,42.572l-0.16,0.132l-0.021,0.205l-0.104,0.971l-0.13,1.206l0.948-0.756l6.033-4.813l0.174-0.138l0.015-0.221
			l0.069-0.969v-0.007l0.002-0.007l0.007-0.146l0.052-1.139l-0.88,0.726L39.716,42.572z M46.038,38.152l-0.07,0.968l-6.033,4.813
			l0.104-0.972l6.006-4.956L46.038,38.152z" />
      </g>
    </g>
    <g>
    </g>
    <g>
    </g>
    <g>
    </g>
    <g>
    </g>
    <g>
    </g>
    <g>
    </g>
    <g>
    </g>
    <g>
    </g>
    <g>
    </g>
    <g>
    </g>
    <g>
    </g>
    <g>
    </g>
    <g>
    </g>
    <g>
    </g>
    <g>
    </g>

</svg>
