<svg xmlns="http://www.w3.org/2000/svg" id="upload" viewBox="0 0 612 612">

    <path d="M218.953,197.915L285.6,117.13v290.864c0,11.281,9.139,20.44,20.4,20.44s20.4-9.139,20.4-20.44V116.355l67.299,81.559
    c7.997,8.038,20.972,8.038,28.969,0c7.996-8.038,7.996-21.053,0-29.09L321.851,46.608c-4.264-4.284-9.935-6.1-15.504-5.814
    c-5.589-0.285-11.24,1.53-15.504,5.814L189.985,168.824c-7.997,8.038-7.997,21.053,0,29.09
    C197.982,205.952,210.957,205.952,218.953,197.915z M591.6,367.235c-11.261,0-20.399,9.139-20.399,20.399v142.8H40.8v-142.8
    c0-11.261-9.139-20.399-20.4-20.399S0,376.374,0,387.635v163.2c0,11.261,9.139,20.4,20.4,20.4h571.2
    c11.261,0,20.4-9.14,20.4-20.4v-163.2C612,376.354,602.86,367.235,591.6,367.235z" />
</svg>
