<svg xmlns="http://www.w3.org/2000/svg"  id="url" viewBox="0 0 321.339 340.51">
    <path d="M0,88.411c-0.026,21.865,8.407,44.016,25.145,60.741l61.561,61.573c16.776,16.789,38.993,25.133,60.78,25.133h0.13
 c21.93,0.013,43.912-8.564,60.467-25.133l2.616-2.629l-37.549-37.554l-2.628,2.622c-6.455,6.456-14.629,9.554-22.906,9.58
 c-8.655-0.026-16.919-3.15-23.375-9.58l-61.547-61.56c-6.442-6.469-9.566-14.694-9.592-23.193c0.026-8.42,3.15-16.633,9.579-23.088
 l2.629-2.616c6.455-6.442,14.667-9.553,23.141-9.592c8.459,0.04,16.672,3.15,23.14,9.592l25.301,25.314
 c10.374,10.36,27.176,10.36,37.561,0c10.36-10.373,10.36-27.188,0-37.561l-25.314-25.314C132.439,8.434,110.314-0.026,88.45,0
 C66.559-0.026,44.446,8.434,27.748,25.145l-2.616,2.616C8.459,44.433-0.026,66.52,0,88.411z M145.676,251.279
 c-10.374,10.373-10.374,27.188,0,37.562l26.524,26.523c16.789,16.803,39.005,25.146,60.792,25.146h0.131
 c21.917,0.025,43.912-8.563,60.468-25.146l2.603-2.628c16.763-16.725,25.184-38.89,25.146-60.767
 c0.025-21.878-8.46-43.965-25.146-60.61l-61.562-61.562c-16.684-16.711-38.81-25.17-60.675-25.145
 c-17.154-0.026-34.463,5.167-49.17,15.475c-2.447,1.237-4.738,2.863-6.768,4.907l-4.763,4.75l-2.616,2.629l0,0l0,0l37.548,37.561
 l2.629-2.623c6.456-6.442,14.668-9.553,23.141-9.592c8.46,0.039,16.672,3.149,23.141,9.592l61.561,61.566
 c6.429,6.457,9.553,14.655,9.579,23.051c-0.026,8.524-3.15,16.763-9.579,23.23l-2.629,2.604c-6.455,6.455-14.629,9.564-22.906,9.578
 c-8.655-0.026-16.92-3.149-23.375-9.578l-26.524-26.525C172.864,240.92,156.049,240.92,145.676,251.279z" />
</svg>
