<svg  viewBox="0 0 512 512" id="yandex-disk">
    <g>
      <g>
        <path d="M7.768,356.524c6.985,10.702,20.017,21.968,44.049,29.819c21.986,7.183,50.96,10.72,84.14,10.302l285.087-76.389
              c28.944-16.227,52.267-33.777,67.717-50.992c16.886-18.815,22.541-35.088,23.239-47.85L7.768,356.524z" />
      </g>
    </g>
    <g>
      <g>
        <path d="M353.308,121.803c-16.887-22.943-40.022-40.195-66.916-49.901c-27.592-9.958-57.202-11.196-85.631-3.578
              c-28.429,7.618-53.453,23.495-72.37,45.914c-18.437,21.852-29.846,48.361-32.999,76.673l-0.776,5.897l262.312-70.286
              L353.308,121.803z" />
      </g>
    </g>
    <g>
      <g>
        <path d="M460.187,162.603c-21.84-7.138-50.578-10.675-83.484-10.31L90.378,229.015c-28.681,16.137-51.799,33.569-67.145,50.671
              C6.349,298.499,0.696,314.773,0,327.536l504.233-135.109C497.249,181.723,484.217,170.455,460.187,162.603z" />
      </g>
    </g>
    <g>
      <g>
        <polygon points="158.22,421.749 182.032,448.602 407.121,388.29 414.317,353.129 		" />
      </g>
    </g>
    <g>
    </g>
    <g>
    </g>
    <g>
    </g>
    <g>
    </g>
    <g>
    </g>
    <g>
    </g>
    <g>
    </g>
    <g>
    </g>
    <g>
    </g>
    <g>
    </g>
    <g>
    </g>
    <g>
    </g>
    <g>
    </g>
    <g>
    </g>
    <g>
    </g>

</svg>
